# xmcd CD database file
#
# Track frame offsets:
#	150
#	22012
#	31775
#	57955
#	74540
#	103775
#	121567
#	146845
#	160480
#	177197
#
# Disc length: 2546 seconds
#
# Revision: 0
# Processed by: cddbd v1.4PL0 Copyright (c) Steve Scherf et al.
# Submitted via: Feurio! 1.65 - http://www.feurio.com
#
DISCID=8809f00a
DTITLE=Cuby and Blizzards - Ballads
DYEAR=1900
DGENRE=Blues
TTITLE0=Never Get Out Off These Blues Alive
TTITLE1=Perfection
TTITLE2=Kid Blue
TTITLE3=Perfect Song
TTITLE4=Something Inside Of Me - Live
TTITLE5=Stepping In My Shoes - Live
TTITLE6=Country Boy - Live
TTITLE7=Downhearted Woman - Live
TTITLE8=You Don't Know
TTITLE9=Woman
EXTD=Universe Productions CDLS 8801
EXTT0=
EXTT1=
EXTT2=
EXTT3=
EXTT4=
EXTT5=
EXTT6=
EXTT7=
EXTT8=
EXTT9=
PLAYORDER=
